<svg width="43" height="48" viewBox="0 0 43 48" fill="none" xmlns="http://www.w3.org/2000/svg">
<path d="M40.7905 23.9823C42.8069 20.4549 43.4909 16.2186 42.6268 12.0709H42.6448C42.6448 12.0709 42.6268 12.0709 42.6268 12.0532V12.0355H42.6089C39.3862 9.19941 35.2815 7.63959 31.1587 7.60414C29.0523 4.07682 25.6318 1.34712 21.527 0.0177253V0H21.5091H21.491V0.0177253C17.3683 1.36484 13.9476 4.09454 11.8593 7.62187C7.70051 7.65732 3.59583 9.23486 0.373197 12.0886H0.35515V12.1064C0.35515 12.1064 0.337232 12.1064 0.337232 12.1241H0.35515C-0.490924 16.2718 0.193232 20.5081 2.2096 24.0177C0.193232 27.5451 -0.490926 31.7814 0.373197 35.9291H0.35515C0.35515 35.9291 0.373197 35.9291 0.373197 35.9469V35.9646H0.391246C3.61375 38.8006 7.71856 40.3605 11.8413 40.3959C13.9296 43.9232 17.3503 46.6529 21.473 47.9824V48H21.491H21.5091V47.9824C25.6318 46.6352 29.0523 43.9055 31.1408 40.3781C35.2995 40.3427 39.4043 38.7652 42.6268 35.9114H42.6448V35.8937C42.6448 35.8937 42.6629 35.8937 42.6629 35.876H42.6448C43.4909 31.7459 42.8069 27.5097 40.7905 23.9823ZM41.0425 12.9572C41.6187 16.2718 41.1146 19.5509 39.7103 22.3516C38.4141 20.6145 36.7397 19.1079 34.7233 17.9912C34.2552 17.7253 33.7692 17.4949 33.3011 17.2822C33.3552 16.7503 33.3911 16.2187 33.3911 15.6868C33.3911 13.4535 32.923 11.3087 32.0589 9.35894C35.2995 9.55393 38.45 10.8124 41.0425 12.9572ZM13.4796 24.8686L14.0376 23.9823L13.4976 23.096C12.5795 21.6248 11.9672 20.0118 11.6252 18.3457C13.1375 17.8494 14.7218 17.5835 16.3241 17.5835C16.4681 17.5835 16.6121 17.5835 16.7382 17.5835L17.8003 17.6189L18.3045 16.7149C19.1326 15.226 20.2128 13.8966 21.5091 12.7976C22.7873 13.8966 23.8854 15.226 24.7135 16.7149L25.2177 17.6189L26.2799 17.5835C26.4239 17.5835 26.5679 17.5835 26.6939 17.5835C28.2962 17.5835 29.8985 17.8494 31.3928 18.3457C31.0687 20.0118 30.4386 21.6425 29.5025 23.1137L28.9443 24.0001L29.4845 24.8863C30.4026 26.3574 31.0147 27.9704 31.3568 29.6367C29.8445 30.133 28.2603 30.3989 26.658 30.3989C26.5138 30.3989 26.3698 30.3989 26.2439 30.3989L25.1816 30.3633L24.6776 31.2674C23.8494 32.7563 22.7692 34.0857 21.473 35.1846C20.1948 34.0857 19.0965 32.7563 18.2684 31.2674L17.7643 30.3633L16.7022 30.3989C16.5581 30.3989 16.4141 30.3989 16.2881 30.3989C14.6858 30.3989 13.0835 30.133 11.5893 29.6367C11.9313 27.9528 12.5614 26.3398 13.4796 24.8686ZM9.96892 28.9631C9.68092 28.8213 9.3928 28.6795 9.12285 28.52C7.10647 27.3855 5.46808 25.8258 4.22585 23.9823C5.45016 22.1388 7.10647 20.579 9.1048 19.4624C9.39279 19.3028 9.69884 19.1433 9.98697 19.0015C10.383 20.774 11.0672 22.4579 12.0033 23.9645C11.0672 25.5067 10.3649 27.1906 9.96892 28.9631ZM30.9787 24.0177C31.9328 22.4933 32.617 20.8094 33.0131 19.0193C33.3011 19.161 33.5891 19.3028 33.8592 19.4624C35.8756 20.5968 37.5138 22.1566 38.7561 24.0001C37.5319 25.8434 35.8756 27.4033 33.8773 28.52C33.5891 28.6795 33.2831 28.839 32.9951 28.9809C32.5991 27.2082 31.9149 25.5244 30.9787 24.0177ZM31.6448 15.6692C31.6448 15.9882 31.6268 16.325 31.6089 16.644C29.9885 16.1301 28.3322 15.8996 26.6759 15.8996C26.5138 15.8996 26.3698 15.8996 26.2078 15.8996C25.3437 14.3574 24.2275 12.9394 22.8773 11.7341C23.1653 11.5392 23.4713 11.3619 23.7594 11.1847C25.7037 10.0857 27.8822 9.44757 30.1146 9.32349C31.1048 11.2733 31.6448 13.418 31.6448 15.6692ZM21.5091 1.80798C24.7316 2.97785 27.396 5.06942 29.1784 7.71049C27.036 7.94092 24.8936 8.61449 22.9132 9.73118C22.4092 10.0148 21.9411 10.3161 21.491 10.6352C21.0229 10.2984 20.5548 9.99705 20.0508 9.71345C18.0884 8.59676 15.964 7.95865 13.8396 7.71049C15.604 5.06942 18.2684 2.97785 21.5091 1.80798ZM12.8675 9.32349C15.0819 9.44757 17.2603 10.0857 19.1865 11.1669C19.4927 11.3442 19.7987 11.5214 20.1048 11.7341C18.7545 12.9394 17.6382 14.3398 16.7922 15.8818C16.6301 15.8818 16.4861 15.8818 16.3241 15.8818C14.6678 15.8818 13.0115 16.1301 11.3912 16.6263C11.3732 16.3072 11.3551 15.9882 11.3551 15.6514C11.3551 13.418 11.8953 11.2733 12.8675 9.32349ZM1.92148 12.9749C4.51397 10.8301 7.66455 9.57164 10.9591 9.34121C10.095 11.291 9.62691 13.418 9.62691 15.6692C9.62691 16.2009 9.66287 16.7327 9.71689 17.2644C9.21282 17.4771 8.72669 17.7253 8.24067 18.0089C6.24222 19.1433 4.56799 20.6322 3.27174 22.3693C1.88551 19.5509 1.3634 16.2718 1.92148 12.9749ZM1.93953 35.0428C1.3634 31.7283 1.86746 28.4491 3.27174 25.6484C4.56799 27.3855 6.24222 28.8921 8.25859 30.0088C8.72668 30.2747 9.21283 30.5052 9.68092 30.7178C9.6269 31.2497 9.59081 31.7813 9.59081 32.3132C9.59081 34.5465 10.0589 36.6913 10.9232 38.641C7.68247 38.4284 4.53202 37.1698 1.93953 35.0428ZM11.3372 32.3309C11.3372 32.0118 11.3551 31.6751 11.3732 31.356C12.9935 31.8701 14.6497 32.1004 16.306 32.1004C16.4681 32.1004 16.6121 32.1004 16.7741 32.1004C17.6382 33.6426 18.7545 35.0606 20.1048 36.2659C19.8167 36.4608 19.5106 36.6381 19.2226 36.8153C17.2782 37.9144 15.0999 38.5524 12.8675 38.6766C11.8773 36.7267 11.3372 34.5643 11.3372 32.3309ZM21.491 46.1921C18.2684 45.0222 15.604 42.9306 13.8216 40.2895C15.964 40.0592 18.1063 39.3856 20.0867 38.2689C20.5908 37.9852 21.0589 37.6839 21.5091 37.3649C21.977 37.6839 22.4451 38.003 22.9493 38.2865C24.9117 39.4032 27.036 40.0414 29.1604 40.2895C27.3781 42.9128 24.7135 45.0044 21.491 46.1921ZM30.1146 38.6588C27.9002 38.5348 25.7218 37.8966 23.7954 36.8153C23.4894 36.6381 23.1833 36.4608 22.8773 36.2482C24.2275 35.0428 25.3437 33.6426 26.1899 32.1004C26.3519 32.1004 26.4959 32.1004 26.658 32.1004C28.3143 32.1004 29.9705 31.8523 31.5908 31.356C31.6089 31.6751 31.6268 31.9941 31.6268 32.3309C31.6268 34.5643 31.0867 36.7091 30.1146 38.6588ZM41.0606 35.0074C38.4681 37.1522 35.3175 38.4107 32.0229 38.641C32.8871 36.6913 33.3552 34.5643 33.3552 32.3132C33.3552 31.7813 33.3192 31.2497 33.2652 30.7178C33.7692 30.5052 34.2552 30.257 34.7414 29.9734C36.7397 28.839 38.4141 27.3501 39.7103 25.613C41.0965 28.4313 41.6187 31.7105 41.0606 35.0074Z" fill="black"/>
</svg>
